<svg id="Laag_1" data-name="Laag 1" xmlns="http://www.w3.org/2000/svg" viewBox="0 0 279.27 545.69"><defs><style>.cls-1{fill:#ea9f32;}.cls-1,.cls-2{stroke:#1e1e1c;stroke-miterlimit:10;stroke-width:10px;}.cls-2{fill:none;}</style></defs><title>5</title><path class="cls-1" d="M644.33,48.85s101.09,33.41,92.52,88.24-46,211.48-46,211.48-10.54,41.84-65.36,34.26c0,0-19.7,83.8-30,92.93v100.8H544.1V475.76s-24.84-3.72,0-101.38c0,0-84-13.71-75.39-61.68l51.95-233S550.1,19.72,644.33,48.85Z" transform="translate(-463.1 -35.87)"/><path class="cls-2" d="M651.26,118l-36.78-13H565.62a8.15,8.15,0,0,0-8.15,6.44,7,7,0,0,0,.37,3.8,7.33,7.33,0,0,0,6.92,4.42h44.17l39.88,13.45a7.77,7.77,0,0,0,6.59-.59,5.88,5.88,0,0,0,2.75-5.58A10.07,10.07,0,0,0,651.26,118Z" transform="translate(-463.1 -35.87)"/><path class="cls-2" d="M646.25,151.92l-35.94-15.18-48.78-2.91a8.15,8.15,0,0,0-8.52,5.94,7,7,0,0,0,.14,3.82,7.33,7.33,0,0,0,6.64,4.82L603.88,151l39,15.81a7.77,7.77,0,0,0,6.61-.19,5.88,5.88,0,0,0,3.08-5.4A10.07,10.07,0,0,0,646.25,151.92Z" transform="translate(-463.1 -35.87)"/><path class="cls-2" d="M638.08,182.6l-36.64-14.66-48.82-2a8.15,8.15,0,0,0-8.4,6.11,7,7,0,0,0,.21,3.81,7.33,7.33,0,0,0,6.73,4.69l44.13,1.79,39.3,15.06a7.77,7.77,0,0,0,6.61-.32c1.79-1,3.33-3,2.91-6.74A9.6,9.6,0,0,0,638.08,182.6Z" transform="translate(-463.1 -35.87)"/><path class="cls-2" d="M632.06,216.92,596.42,201l-48.71-3.86a8.15,8.15,0,0,0-8.63,5.78,7,7,0,0,0,.06,3.82,7.33,7.33,0,0,0,6.55,4.95l44,3.49,38.69,16.56a7.77,7.77,0,0,0,6.62-.07,5.88,5.88,0,0,0,3.18-5.34A10.07,10.07,0,0,0,632.06,216.92Z" transform="translate(-463.1 -35.87)"/><path class="cls-2" d="M622.18,247.19,586.26,232l-48.77-3A8.15,8.15,0,0,0,529,234.9a7,7,0,0,0,.13,3.82,7.33,7.33,0,0,0,6.63,4.83l44.08,2.7,39,15.87a7.77,7.77,0,0,0,6.62-.18,5.88,5.88,0,0,0,3.09-5.4A10.07,10.07,0,0,0,622.18,247.19Z" transform="translate(-463.1 -35.87)"/><path class="cls-2" d="M618.81,279.37l-37-16.11L532,259.72a6.82,6.82,0,0,0-6.15,3,7.79,7.79,0,0,0-1.26,6.77,7.33,7.33,0,0,0,6.59,4.9l44.06,3.13,38.83,16.25a7.77,7.77,0,0,0,6.62-.12c2.13-1.13,4-3.57,2.77-8.77A8,8,0,0,0,618.81,279.37Z" transform="translate(-463.1 -35.87)"/><path class="cls-2" d="M732.47,161.63l-33.66-22.2c-3.29-2.17-7.82-2.14-10.65.62-1.83,1.78-3,4.5-1.73,8.57a13.69,13.69,0,0,0,7.57,8.22c7.81,3.54,24.69,12,34.84,23Z" transform="translate(-463.1 -35.87)"/><path class="cls-2" d="M725.54,192.49l-33.66-22.2c-3.29-2.17-7.82-2.14-10.65.62-1.83,1.78-3,4.5-1.73,8.57a13.69,13.69,0,0,0,7.57,8.22c7.81,3.54,24.69,12,34.84,23Z" transform="translate(-463.1 -35.87)"/><path class="cls-2" d="M718.89,223l-33.66-22.2c-3.29-2.17-7.82-2.14-10.65.62-1.83,1.78-3,4.5-1.73,8.57a13.69,13.69,0,0,0,7.57,8.22c7.81,3.54,24.69,12,34.84,23Z" transform="translate(-463.1 -35.87)"/><path class="cls-2" d="M712,253.74l-33.66-22.2c-3.29-2.17-7.82-2.14-10.65.62-1.83,1.78-3,4.5-1.73,8.57a13.69,13.69,0,0,0,7.57,8.22c7.81,3.54,24.69,12,34.84,23Z" transform="translate(-463.1 -35.87)"/><path class="cls-2" d="M704.72,284.31l-33.66-22.2c-3.29-2.17-7.82-2.14-10.65.62-1.83,1.78-3,4.5-1.73,8.57a13.69,13.69,0,0,0,7.57,8.22c7.81,3.54,24.69,12,34.84,23Z" transform="translate(-463.1 -35.87)"/><path class="cls-2" d="M699.16,312.5l-33.66-22.2c-3.29-2.17-7.82-2.14-10.65.62-1.83,1.78-3,4.5-1.73,8.57a13.69,13.69,0,0,0,7.57,8.22c7.81,3.54,24.69,12,34.84,23Z" transform="translate(-463.1 -35.87)"/><path class="cls-2" d="M591,41.25s10.92-.11,8,.74c-9.87,2.9-31.69,12.57-31.39,41.39a8.46,8.46,0,0,1-4,7.36,5.47,5.47,0,0,1-5.79.22,7.27,7.27,0,0,1-3.44-6.09c-.36-8.6-2.06-29.11,16-40.1C570.48,44.76,578,40.51,591,41.25Z" transform="translate(-463.1 -35.87)"/><path class="cls-2" d="M531.68,65.33c-3.76,4.14-4.74,13.49-5,19.08a7.22,7.22,0,0,0,2.88,6.3,5.47,5.47,0,0,0,5.79.28A8.46,8.46,0,0,0,540,84s-.1-16.4,14.39-31.54c0,0-.5-2.73-2.82-1.53C546.57,53.52,537.73,58.66,531.68,65.33Z" transform="translate(-463.1 -35.87)"/><path class="cls-2" d="M625.22,43.94c.09,0,8.67,1.41,6.11,2.36-3.47,1.3-32.84,5.1-33.75,36.73A8.18,8.18,0,0,1,593,90a5.47,5.47,0,0,1-5.79-.28,7.27,7.27,0,0,1-2.9-6.37c.38-8.6,3.28-32.7,22.25-42.09C606.52,41.28,612.53,42.12,625.22,43.94Z" transform="translate(-463.1 -35.87)"/><path class="cls-2" d="M514.36,108l17.56-3.46a11.88,11.88,0,0,1,11,3.17c1.75,1.85,2.8,4.27,1.24,7.11a8.24,8.24,0,0,1-6.19,4c-7.19,1-25.21,3.79-27.52,6.89Z" transform="translate(-463.1 -35.87)"/><path class="cls-2" d="M507.93,136.82l22.46-1.53a9,9,0,0,1,8.84,4.9,7.07,7.07,0,0,1,.41,5,8.43,8.43,0,0,1-7.37,5.79l-28.14,2.9Z" transform="translate(-463.1 -35.87)"/><path class="cls-2" d="M501,167.68h23.33a9.15,9.15,0,0,1,7.8,4,5.83,5.83,0,0,1,.31,6.09,8.33,8.33,0,0,1-7.13,4.33c-7.67.34-25.84,1.45-28.49,4.31Z" transform="translate(-463.1 -35.87)"/><path class="cls-2" d="M494.24,198.22s26-2.95,32,3-1.47,14-5.54,13.52-30.12,0-30.12,0Z" transform="translate(-463.1 -35.87)"/><path class="cls-2" d="M487.39,228.93l24.05-.19a10.19,10.19,0,0,1,8.3,3.9,6.77,6.77,0,0,1,1.45,5.32,6.44,6.44,0,0,1-6.09,5l-31.25,1.82Z" transform="translate(-463.1 -35.87)"/><path class="cls-2" d="M480.58,259.5h25.87a8.66,8.66,0,0,1,8.66,6.79,8,8,0,0,1-.42,4.33,8.82,8.82,0,0,1-8.35,5.41H476.89Z" transform="translate(-463.1 -35.87)"/><path class="cls-2" d="M555.71,292.63a7.35,7.35,0,0,1,3.21,6.28v31.91S557,342,574.08,350.56l17.27,7.37a6.82,6.82,0,0,1,4.19,7.43c-.46,2.31-2.2,4.42-7,4.42-7.64,0-18.58-4.3-29.4-12.26a39.71,39.71,0,0,1-16.19-34.65l0-.55c.94-12.41,1.36-20.33,1.79-23.88a7.64,7.64,0,0,1,6.84-6.85A6.69,6.69,0,0,1,555.71,292.63Z" transform="translate(-463.1 -35.87)"/><path class="cls-2" d="M526.07,297.87l-.39,24.63a35.59,35.59,0,0,0,17.43,31.42,77.12,77.12,0,0,0,8,4,5.1,5.1,0,0,1,3.23,5c-.19,1.92-1.75,3.6-7.21,2.69,0,0-31.68-13.05-34-28.21-1.87-12.16-.74-32.46-.22-40a7.12,7.12,0,0,1,4.73-6.38,6.15,6.15,0,0,1,4.19.13A7,7,0,0,1,526.07,297.87Z" transform="translate(-463.1 -35.87)"/><path class="cls-2" d="M497.74,297.09l-1.93,23.19A33.62,33.62,0,0,0,510.26,351a72.85,72.85,0,0,0,7.29,4.29,4.82,4.82,0,0,1,2.73,4.92c-.3,1.79-1.88,3.29-7,2.08,0,0-29-14.3-30.28-28.74-1-11.58,1.35-30.64,2.32-37.73a6.72,6.72,0,0,1,4.86-5.71,5.81,5.81,0,0,1,3.94.39A6.6,6.6,0,0,1,497.74,297.09Z" transform="translate(-463.1 -35.87)"/><circle class="cls-2" cx="111.83" cy="407.76" r="12.86"/></svg>