<svg id="Laag_1" data-name="Laag 1" xmlns="http://www.w3.org/2000/svg" viewBox="0 0 450.33 450.33"><defs><style>.cls-1{fill:#221f20;}.cls-2{fill:#eb5b51;}</style></defs><title>4</title><circle class="cls-1" cx="225.17" cy="225.17" r="225.17"/><path class="cls-2" d="M500.31,87.87a212.09,212.09,0,0,0-176.62,94.48v92.52L371,317.46s19.46-15.82,36,0l36,36s27.63,23.61,13.63,45.33a30.66,30.66,0,0,1-3,3.91c-10.65,11.84-29.55,11.32-41.48.77l-48.44-42.81s-9.61-14.41-4.8-21.62l-53.67-52L300.61,228A211.89,211.89,0,0,0,288,300.18c0,117.26,95.06,212.32,212.32,212.32s212.32-95.06,212.32-212.32S617.57,87.87,500.31,87.87Zm0,253.55a41.23,41.23,0,1,1,41.23-41.23A41.23,41.23,0,0,1,500.31,341.42Z" transform="translate(-275.14 -75.01)"/></svg>