<svg id="Laag_1" data-name="Laag 1" xmlns="http://www.w3.org/2000/svg" viewBox="0 0 462.04 462.04"><defs><style>.cls-1{fill:#1e1e1c;}</style></defs><title>9</title><path class="cls-1" d="M500.94,418.14c2.87-4.87,3.07-17.5,3.11-38.81,0-2.23,0-4.27,0-6.3,0-17.41-.12-27.94-2.8-31.41-2.68-3.87-7.51-4.81-14.51-3.75a33.8,33.8,0,0,0-4.12.81l-.12,89.46a36.56,36.56,0,0,0,4.46-.79C493.61,425.89,498.08,423,500.94,418.14Z" transform="translate(-371.41 -69.53)"/><path class="cls-1" d="M670.18,69.53,524.42,149.18c6.17,5.86,9.37,14.12,9.33,24.61,0,11.77-4.4,20.64-14.7,29.89,12.06,5.57,18.14,15.71,18.09,30.52,0,12.45-4.58,24.08-11.8,32.22-8.66,10-20.16,12.37-36.86,14.17l-37.56,4V189.34l-79.5,43.45,79.5,145.5V316.48l34.82-4.57c21.18-2.78,34.45-2.33,42.85,9.09,7.67,10.46,7.6,27.63,7.51,52.2s-.15,41.74-7.87,55-19.31,18.84-37.14,23.55l43.59,79.77L833.44,368.3Zm-114.38,70h73.92l-.2,24.46-42.24.88-.15,23.93,38.95-1.57-.2,25.37L587,215l-.17,28.45,42.09-3.59-.2,25.63-73.5,7.9Zm84.26,222.13q0,5-.09,9.44c-.11,12.77-.56,23.29-5.64,33.05-6.7,13.07-18.69,20.83-37.6,25.42-17.48,4.24-28.52,2.17-35.24-7.88-6-9.28-6.31-24.87-6.21-46.93l.32-72,31.58-4.14-.49,81.67c-.11,18,.19,27.31,11.09,24.89,10.35-2.3,10.6-11.18,10.71-27.53,0-.51,0-1.19,0-1.71l.57-80.19,31.58-4.14Zm9.4-222.13h31.81l-1.05,96.1,38-3.25-.31,23.53-69.54,7.47ZM698.69,402l-37.29,9,1.22-122.28,33.93-4.45c14.18-1.86,24.94-3.12,33.67.16,9.63,3.54,14.53,11,14.37,22-.16,9.8-4.57,17.78-14.87,26.92,11.91,3,17.87,10.54,17.68,22.87-.16,10.37-4.76,20.7-12,28.54C726.71,394.38,715.28,398,698.69,402Z" transform="translate(-371.41 -69.53)"/><path class="cls-1" d="M713.89,313.74c.11-8.06-5.74-11.85-16.69-10.22a24.31,24.31,0,0,0-3.23.63L693.66,331l2-.34C707.81,328.58,713.77,323.37,713.89,313.74Z" transform="translate(-371.41 -69.53)"/><path class="cls-1" d="M695.56,351.18l-2.14.42L693,382.42l2.68-.59c13.21-2.91,19.9-9.8,20-20.32C715.9,351.59,709.52,348.49,695.56,351.18Z" transform="translate(-371.41 -69.53)"/><path class="cls-1" d="M505.28,235.09c0-11.85-6.45-16.64-20.5-15.79l-2.17.13,0,36.73,2.7-.24C498.58,254.75,505.25,247.68,505.28,235.09Z" transform="translate(-371.41 -69.53)"/><path class="cls-1" d="M502.88,177.58c0-6.08-2.36-10.49-6.87-12.88L482.68,172l0,22.95,2-.08C496.9,194.34,502.86,189.09,502.88,177.58Z" transform="translate(-371.41 -69.53)"/></svg>