<svg id="Laag_1" data-name="Laag 1" xmlns="http://www.w3.org/2000/svg" viewBox="0 0 573.27 444.39"><defs><style>.cls-1{fill:#ffdb51;stroke:#1e1e1c;stroke-miterlimit:10;stroke-width:10px;}</style></defs><title>3</title><path class="cls-1" d="M163.65,75.19H677.51s22.59-2.88,22.59,13.73V496.5s-2.82,12.87-16.94,12.87H156.59s-18.35,0-19.76-16.3V90.64S136.45,72.83,163.65,75.19Z" transform="translate(-131.83 -69.98)"/><rect class="cls-1" x="65.66" y="37.68" width="18.01" height="278.23" rx="7.74" ry="7.74"/><rect class="cls-1" x="166.35" y="37.68" width="18.01" height="278.23" rx="7.74" ry="7.74"/><rect class="cls-1" x="266.7" y="37.68" width="18.01" height="278.23" rx="7.74" ry="7.74"/><rect class="cls-1" x="373.18" y="37.68" width="18.01" height="278.23" rx="7.74" ry="7.74"/><rect class="cls-1" x="482.33" y="37.68" width="18.01" height="278.23" rx="7.74" ry="7.74"/><path class="cls-1" d="M176.57,304.58v22.88a3.54,3.54,0,0,0,3.17,3.52c3.17.35,53.5,0,53.5,0a4.23,4.23,0,0,0,3.17-4.22V304.58s-.22-1.76-4-1.76H178.61A1.7,1.7,0,0,0,176.57,304.58Z" transform="translate(-131.83 -69.98)"/><path class="cls-1" d="M277.27,285.44v22.88a3.54,3.54,0,0,0,3.17,3.52c3.17.35,53.5,0,53.5,0a4.23,4.23,0,0,0,3.17-4.22V285.44s-.22-1.76-4-1.76H279.3A1.7,1.7,0,0,0,277.27,285.44Z" transform="translate(-131.83 -69.98)"/><path class="cls-1" d="M377.61,165.92V188.8a3.54,3.54,0,0,0,3.17,3.52c3.17.35,53.5,0,53.5,0a4.23,4.23,0,0,0,3.17-4.22V165.92s-.22-1.76-4-1.76H379.65A1.7,1.7,0,0,0,377.61,165.92Z" transform="translate(-131.83 -69.98)"/><circle class="cls-1" cx="75.13" cy="379.5" r="30.14"/><circle class="cls-1" cx="175.92" cy="379.5" r="30.14"/><path class="cls-1" d="M484.09,284.08V307a3.54,3.54,0,0,0,3.17,3.52c3.17.35,53.5,0,53.5,0a4.23,4.23,0,0,0,3.17-4.22V284.08s-.22-1.76-4-1.76H486.13A1.7,1.7,0,0,0,484.09,284.08Z" transform="translate(-131.83 -69.98)"/><circle class="cls-1" cx="382.75" cy="378.14" r="30.14"/><circle class="cls-1" cx="275.71" cy="379.5" r="30.14"/><path class="cls-1" d="M593.24,227.61v22.88a3.54,3.54,0,0,0,3.17,3.52c3.17.35,53.5,0,53.5,0a4.23,4.23,0,0,0,3.17-4.22V227.61s-.22-1.76-4-1.76H595.28A1.7,1.7,0,0,0,593.24,227.61Z" transform="translate(-131.83 -69.98)"/><circle class="cls-1" cx="491.34" cy="378.14" r="30.14"/></svg>