<svg id="Laag_1" data-name="Laag 1" xmlns="http://www.w3.org/2000/svg" viewBox="0 0 377.33 431.45"><defs><style>.cls-1{fill:#e77475;stroke:#1e1e1c;stroke-miterlimit:10;stroke-width:10px;}</style></defs><title>6</title><path class="cls-1" d="M726.63,289.59h16.25l-2.57-71.86c-48,4.3-107.92-29.16-126.19-40.18V144.76c16.18-19.16,48.66-16.88,65.17-14.21a67.44,67.44,0,0,0,66-27.8c1.51-2.16,2.27-3.52,2.27-3.52-13,5.57-41.71,3.08-56.56,1.27a73.38,73.38,0,0,1-15.63-3.72c-38.89-13.76-61.27,2.44-61.27,2.44l-1.26-1.72c-2.25-4.09-7.43-3.43-7.43-3.43-3.06,0-7.25,3.24-7.25,6.29v78.25C558.07,212,467,220.72,467,220.72V290h16.25c8.56,125.76-60.41,180-60.41,180L505,512c78.71-41.92,103.52-176.24,103.52-176.24C621.4,459.84,705.24,512,705.24,512l77.42-36.36C731.34,419.2,726.63,289.59,726.63,289.59Z" transform="translate(-413.59 -86.25)"/></svg>