<svg id="Laag_1" data-name="Laag 1" xmlns="http://www.w3.org/2000/svg" viewBox="0 0 364.24 468.1"><defs><style>.cls-1{fill:#85c6a1;stroke:#221f20;stroke-miterlimit:10;stroke-width:10px;}</style></defs><title>1</title><polyline class="cls-1" points="270.77 58.58 271.83 22.79 213.88 5.3 192.13 14.39 192.13 39.49"/><line class="cls-1" x1="247.53" y1="154.99" x2="247.53" y2="248.09"/><line class="cls-1" x1="110.6" y1="130.54" x2="110.6" y2="232.53"/><polyline class="cls-1" points="348.01 175.21 348.01 172.93 348.01 110.75 122.43 53.27 79.28 70.18 79.28 140.14 110.6 129.87 348.01 172.93"/><path class="cls-1" d="M542.4,198.53" transform="translate(-419.97 -65.88)"/><polyline class="cls-1" points="79.28 140.14 79.28 70.18 122.43 53.27 187.07 69.81 187.07 144.43 110.6 129.87 79.28 140.14"/><line class="cls-1" x1="187.07" y1="144.19" x2="187.07" y2="69.57"/><line class="cls-1" x1="243.07" y1="154.19" x2="243.07" y2="14.11"/><line class="cls-1" x1="301.49" y1="98.85" x2="301.49" y2="164.63"/><polyline class="cls-1" points="200.25 38.34 200.23 72.97 282.27 93.97 282.27 62.01 200.23 37.52 176.23 43.35 176.23 66.83 199.84 72.88"/><line class="cls-1" x1="213.35" y1="41.44" x2="214.02" y2="6.13"/><circle class="cls-1" cx="155.4" cy="100.72" r="19.85"/><circle class="cls-1" cx="214.98" cy="113.89" r="17.43"/><circle class="cls-1" cx="272.22" cy="126.44" r="17.11"/><circle class="cls-1" cx="325.34" cy="137.48" r="12.51"/><polyline class="cls-1" points="14.89 249.93 14.89 159.15 110.6 130.54 359.25 174.94 359.25 260.78 288.33 252.72 98.76 231.18 98.76 249.93 93.82 463.05"/><polygon class="cls-1" points="98.76 231.18 5.02 251.9 5.99 438.76 93.82 463.05 359.25 444.31 359.25 260.78 98.76 231.18"/><line class="cls-1" x1="194.38" y1="455.95" x2="194.38" y2="242.05"/><line class="cls-1" x1="243.07" y1="247.58" x2="243.07" y2="154.19"/><line class="cls-1" x1="288.33" y1="449.39" x2="288.33" y2="252.04"/><line class="cls-1" x1="98.19" y1="463.05" x2="98.19" y2="233.44"/><ellipse class="cls-1" cx="147.08" cy="293.76" rx="33.08" ry="35.11"/><ellipse class="cls-1" cx="241.82" cy="301.73" rx="30.62" ry="33.08"/><ellipse class="cls-1" cx="324.58" cy="306.62" rx="23.83" ry="26.19"/><line class="cls-1" x1="110.6" y1="130.54" x2="110.6" y2="232.53"/><polygon class="cls-1" points="128.4 148.19 226.7 165.63 226.7 232.46 128.4 221.61 128.4 148.19"/><polygon class="cls-1" points="260.53 170.86 344.85 186.04 345.26 246.06 260.53 236.6 260.53 170.86"/><circle class="cls-1" cx="212.88" cy="53.27" r="0.7"/><circle class="cls-1" cx="213.69" cy="64.75" r="0.7"/><circle class="cls-1" cx="225.07" cy="57.08" r="0.7"/><circle class="cls-1" cx="227.27" cy="68.28" r="0.7"/><circle class="cls-1" cx="237.11" cy="60.84" r="0.7"/><circle class="cls-1" cx="240.59" cy="71.62" r="0.7"/><circle class="cls-1" cx="670.41" cy="130.23" r="0.7" transform="translate(-197.54 579.83) rotate(-60)"/><circle class="cls-1" cx="254.1" cy="75.5" r="0.7"/><circle class="cls-1" cx="269.57" cy="79.39" r="0.7"/><circle class="cls-1" cx="264.38" cy="68.59" r="0.7"/><polygon class="cls-1" points="225.77 24.49 225.77 30.49 230.17 31.82 230.17 25.8 225.77 24.49"/><polygon class="cls-1" points="254.85 32.82 254.85 38.52 259.03 39.78 259.03 34.06 254.85 32.82"/><line class="cls-1" x1="122.43" y1="53.27" x2="122.43" y2="132.65"/></svg>