<svg id="Laag_1" data-name="Laag 1" xmlns="http://www.w3.org/2000/svg" viewBox="0 0 304.97 427.65"><defs><style>.cls-1{fill:#6fb8bf;stroke:#221f20;stroke-miterlimit:10;stroke-width:10px;}</style></defs><title>2</title><polygon class="cls-1" points="69.76 98.82 37.92 162.49 161.57 295.71 222.01 274.25 251.43 222.69 249.69 180.13 129.97 111.62 69.76 98.82"/><path class="cls-1" d="M532.13,147.54l30.45-46.28a20.79,20.79,0,0,1,21.84-9c9.67,2.16,22,8.94,31.9,27.65L586,171.8Z" transform="translate(-449.46 -86.81)"/><path class="cls-1" d="M586,171.8,616.32,120c28.37-5.72,43.78,9.78,51,21.13a17.37,17.37,0,0,1-.35,19.13L610.7,242.78A22.07,22.07,0,0,1,591,252.48a63.47,63.47,0,0,1-21-5.63s-21-8.37-12-28.65" transform="translate(-449.46 -86.81)"/><path class="cls-1" d="M666.31,161.22s36.53,5.56,44.9,32.64a17.18,17.18,0,0,1-2.91,15.6L655.71,277s-47.39-3.32-44.55-34.87Z" transform="translate(-449.46 -86.81)"/><path class="cls-1" d="M616.32,374.3a56.58,56.58,0,0,0-4.38-51.41c-3.82-6.22-7.27-12.67-10.81-19-31.66-57.12-76-63.16-76-63.16,19.31-3.09,17.76-32.44,17.76-32.44S577.7,236,603.19,228.32c15.08-4.57,18.26-18.06,18.35-28.32a18.63,18.63,0,0,0-11-17l-68.37-31.14c-26.26-11.59-37.07,3.86-37.07,3.86l-44.8,74.92a25.71,25.71,0,0,0-4.83,9.51,30.78,30.78,0,0,0,5,25.85L547.57,388.2c-18.54,54.84-17,121.26-17,121.26H682V414.82a57,57,0,0,1,11.85-34.75c6.28-8.16,14-18.15,18.14-24.36,9.3-13.95,9.21-82.77,9.21-82.77" transform="translate(-449.46 -86.81)"/><path class="cls-1" d="M655.71,277s4.64,12,12.45,20.6a19.11,19.11,0,0,0,27.52.55l47.47-46.88a20.67,20.67,0,0,0,4.67-22.77c-3.58-8.33-11.47-17.48-28.77-20.23h-9.79Z" transform="translate(-449.46 -86.81)"/></svg>