<svg id="Laag_1" data-name="Laag 1" xmlns="http://www.w3.org/2000/svg" viewBox="0 0 386.5 428.64"><defs><style>.cls-1,.cls-5,.cls-6{fill:#cdcd27;}.cls-1,.cls-2,.cls-3,.cls-5,.cls-6{stroke:#221f20;stroke-miterlimit:10;}.cls-1,.cls-2,.cls-3{stroke-width:10px;}.cls-2{fill:none;}.cls-3{fill:#497985;}.cls-4{fill:#1e1e1c;}.cls-5{stroke-width:3px;}.cls-6{stroke-width:8px;}</style></defs><title>7</title><polyline class="cls-1" points="343.23 23.63 357.51 25.4 357.51 34.38"/><path class="cls-1" d="M767,278.63V427.29L478.62,510.23l-64.09-34.87V98.29L480.14,92l71,4c38.64-11.52,59.82,5.57,59.82,5.57l94.37,6.32h5.47s20.52-9.37,42,2.74" transform="translate(-409.52 -86.97)"/><circle class="cls-2" cx="128.82" cy="366.84" r="13.28"/><circle class="cls-2" cx="173.73" cy="354.57" r="12.27"/><circle class="cls-2" cx="217.3" cy="343.8" r="12.27"/><line class="cls-3" x1="70.62" y1="5.01" x2="69.09" y2="423.27"/><ellipse class="cls-4" cx="166.52" cy="114.54" rx="85.19" ry="109.53"/><path class="cls-5" d="M530.56,156.63l39.36,16.13,13.55-46.46s5.16-19.15-14.84-15.71S524.75,145,524.75,145,518.48,151.68,530.56,156.63Z" transform="translate(-409.52 -86.97)"/><path class="cls-5" d="M603.3,120.54,597,141.47s-2.12,9.35,3.13,12.58,10.42,6.45,10.42,6.45,9,1.94,11.62-4.52a77.18,77.18,0,0,1,4.1-8.36,18,18,0,0,0-1.06-19.6,14.66,14.66,0,0,0-3-3C615.1,119.85,605,114.7,603.3,120.54Z" transform="translate(-409.52 -86.97)"/><path class="cls-5" d="M614.49,194.32l25.1-31.22s8.57-6.12,10.41,8,3.67,53.25-4.28,61.82-23.87-18.36-23.87-18.36l-7.35-11Z" transform="translate(-409.52 -86.97)"/><path class="cls-5" d="M519.59,178.57s21.94,2.58,21.94,14.2,4.52,25.17-11,26.46S508,224.56,508,203.51,513.3,177.32,519.59,178.57Z" transform="translate(-409.52 -86.97)"/><path class="cls-5" d="M573,230.85l-44.1,12.47a9.52,9.52,0,0,0-6.46,6c-1.82,5.32-2,14.2,10.71,22.82,20,13.55,25.17,17,34.2,18.18,8.07,1.05,14.08-2.95,11.14-18.52-1-5.56-2-11.12-2.69-16.74Z" transform="translate(-409.52 -86.97)"/><path class="cls-5" d="M603.3,245a19.42,19.42,0,0,0-6.69,14.67V278.6s-.87,12.91,14,4.52,15.49-17.42,15.49-17.42a34.71,34.71,0,0,0-3.87-14.84c-3.87-7.1-12.21-11.62-18.9-5.81Z" transform="translate(-409.52 -86.97)"/><ellipse class="cls-5" cx="174.55" cy="114.38" rx="24.52" ry="29.04"/><ellipse class="cls-1" cx="174.89" cy="113.87" rx="7.28" ry="10"/><polyline class="cls-1" points="357.51 49.75 357.51 34.38 357.51 191.66 357.51 177.2"/><ellipse class="cls-4" cx="319.1" cy="113.02" rx="67.4" ry="95.72"/><ellipse class="cls-5" cx="324.51" cy="110.74" rx="15.72" ry="24.94"/><ellipse class="cls-6" cx="324.73" cy="110.3" rx="4.67" ry="8.59"/><path class="cls-5" d="M708.57,130.49s11.59,53.3,4.7,64.8-27.71,39.45-27.71,39.45-13.15-40,0-64.65S708.57,130.49,708.57,130.49Z" transform="translate(-409.52 -86.97)"/><path class="cls-5" d="M738.15,123s47.09,21.91,36.42,74.51C774.58,197.48,730.48,192.55,738.15,123Z" transform="translate(-409.52 -86.97)"/><path class="cls-5" d="M706.38,264.17S751.3,294,769.93,239.72c0,0-9.86-13.75-31.78-13.75C738.15,226,712.5,241.13,706.38,264.17Z" transform="translate(-409.52 -86.97)"/></svg>