<svg id="Laag_1" data-name="Laag 1" xmlns="http://www.w3.org/2000/svg" viewBox="0 0 568.83 568.83"><defs><style>.cls-1{fill:#c9142f;}</style></defs><title>antwerpen</title><path class="cls-1" d="M342.36,305.48c-1.13,0-2.26.16-3.56.16v29.6c1.29,0,2.43.16,3.56.16,11.65,0,16.17-4.21,16.17-15.53C358.53,309.36,354,305.48,342.36,305.48Z" transform="translate(-136.53 -13.16)"/><path class="cls-1" d="M657.27,293V406.25H627.51l-23.78-77.31A532.08,532.08,0,0,1,607,385.7v20.54H581.42V284.61H611l23.61,75c-1.78-24.1-2.75-42.7-2.75-56V284.61H652.7L504.36,13.16,244.76,155,270.22,273.2H241.75l-3.56-23.29H215.87l-3.56,23.29H183.69l21-96.29-68.16,37.24,90.34,165.33V284.61H293v23.61H255.18v22.32h34.94V355H255.18V381.5H293v24.75H241.49l96,175.74L705.36,381ZM369.21,151.57h75.21v23.61H420.48v98H392v-98H369.21ZM306.94,273.2H281.38V151.57H311l23.61,75c-1.78-24.1-2.75-42.7-2.75-56V151.57h25.39V273.2H327.48L303.7,195.89a532.33,532.33,0,0,1,3.23,56.77Zm52.89,133a61.44,61.44,0,0,1-2.1-16.82c0-5.34.32-9.38.32-12.45,0-14.07-2.75-19.41-13.42-19.41H338.8v48.68H310.66V284.61h32c16.17,0,27,.65,34.29,6.47,7.12,5.82,10.35,14.07,10.35,25.39,0,13.91-4.69,23.13-15,29.28,13.26,5.82,13.42,13.91,13.91,28.14.49,15.69-.65,26.2,7,32.35Zm84.27-46.58h-10v46.58H405.44V284.61h28c15.2,0,26.69.49,35.26,5.82,8.9,5.5,13.75,16.5,13.75,31.54C482.43,346.56,469.33,359.66,444.1,359.66Zm119.69-51.43H525.94v22.32h34.94V355H525.94V381.5h37.85v24.75H497.63V284.61h66.15Zm-10.68-35H522.38l-6.63-50.3c-1-7.93-1.94-17.63-2.75-29.11-.65,9.7-1.46,19.57-2.75,29.28l-6.31,50.14H473L448.79,151.57h28.63l6.47,59.2c1.13,10.35,2.1,19.73,2.75,28,.65-9.22,1.62-18.76,3.07-28.14l9.06-59h28.63l8.73,58.87c.81,5.18,1.78,14.56,3.4,28.31,1-11.81,1.78-21,2.59-27.66l6.47-59.52h28.63Z" transform="translate(-136.53 -13.16)"/><path class="cls-1" d="M436.49,306.61h-2.43V337a30,30,0,0,0,3.72.16c11.48,0,16.17-5,16.17-16.82C454,310.33,448.62,306.61,436.49,306.61Z" transform="translate(-136.53 -13.16)"/><polygon class="cls-1" points="98.59 214.75 90.5 161.7 82.26 214.75 98.59 214.75"/></svg>