<svg id="Laag_1" data-name="Laag 1" xmlns="http://www.w3.org/2000/svg" viewBox="0 0 578.67 578.67"><defs><style>.cls-1{fill:#8d2038;}</style></defs><title>limb</title><path class="cls-1" d="M296.06,362.14h-2.22v36.09h2.78c13.69,0,20.54-6.48,20.54-19.06C317.16,367.32,310.5,362.14,296.06,362.14Z" transform="translate(-137.88)"/><path class="cls-1" d="M314.57,321.61c0-9.62-6.11-15.17-17.4-15.17a20.17,20.17,0,0,0-3.33.18v31.46h2C308.46,338.08,314.57,333.09,314.57,321.61Z" transform="translate(-137.88)"/><path class="cls-1" d="M596.6,413c-11.1-12.4-12-32-12-61.62,0-26.09,2-43.67,7.77-52.74,7.77-12.21,20.54-18.32,37.94-18.32,27.39,0,41.27,15,41.27,44.41,0,1.67-.19,3.33-.19,5.18h-30.9v-1.67c0-15.36-2.78-22.39-10.92-22.39-11.29,0-12,11.29-12,35.9V365.1c0,24.43.55,35.35,11.47,35.35,9.07,0,12.58-7.22,12.58-22.58,0-2.22,0-4.44-.18-7H628.61V346.6h44.23v51.48l43.71-23.88L512.07,0,257.28,139.23V242.79h40.44v29.13H223.54V157.66l-85.67,46.81,204.47,374.2L623.18,425.21C612.55,424.84,603.31,420.62,596.6,413ZM312.67,127.79H346.4V271.92H312.67Zm25.22,284.69c-8.88,9.25-20.73,10.36-37.94,10.36H261.27V283.68h35c14.62,0,25.72.19,34.79,5.55,10,5.92,15.17,15.92,15.17,29.42,0,12-4.44,20.91-15,29.79,12.4,6.29,18.69,17,18.69,32.2C349.91,393.42,345.29,404.89,337.88,412.48ZM456.32,362V372.5c0,14.25-.37,25.91-5.55,35.53-6.85,12.77-19.25,18.14-38.86,18.14-18.14,0-29.61-5-36.64-17.21-6.29-11.1-6.66-27.39-6.66-50.34V283.68h32.57v87.16c0,19.25.37,29.24,11.66,29.24,10.73,0,10.92-9.62,10.92-27.39v-89h32.57Zm-9.11-90H421.53L398.72,160.56l2.88,111.36H369.78V127.79h47.15l12.84,61.33c.38,2.3,1.72,13.61,4.6,33.73,3.07-20.32,4.6-31.82,5.17-34.31l12.65-60.76H499V271.92H467.15L470,160.56Zm87.94,150.92a70.27,70.27,0,0,1-2.41-19.25c0-6.11.37-10.73.37-14.25,0-16.1-3.15-22.21-15.36-22.21H511.1v55.7H478.9V283.68h36.64c18.51,0,30.91.74,39.23,7.4,8.14,6.66,11.84,16.1,11.84,29.05,0,15.92-5.37,26.46-17.21,33.5,15.17,6.66,15.36,15.92,15.92,32.2.55,18-.74,30,8,37Z" transform="translate(-137.88)"/><path class="cls-1" d="M515.17,307.55c-1.3,0-2.59.19-4.07.19V341.6c1.48,0,2.78.19,4.07.19,13.32,0,18.51-4.81,18.51-17.77C533.68,312,528.5,307.55,515.17,307.55Z" transform="translate(-137.88)"/></svg>