<svg id="Laag_1" data-name="Laag 1" xmlns="http://www.w3.org/2000/svg" viewBox="0 0 578.02 578.02"><defs><style>.cls-1{fill:#ee7624;}</style></defs><title>ovl</title><path class="cls-1" d="M462,383.1c-.85,0-1.69.12-2.66.12v22.1c1,0,1.81.12,2.66.12,8.69,0,12.07-3.14,12.07-11.59C474.1,386,470.72,383.1,462,383.1Z" transform="translate(-186.64 -8.63)"/><polygon class="cls-1" points="335.46 317.43 347.65 317.43 341.62 277.83 335.46 317.43"/><path class="cls-1" d="M395.44,213.9V192.42c0-19.27,0-29.06-11.53-29.06-11.21,0-11.37,9.79-11.37,29.06V213.9c0,19.43.32,29.06,11.53,29.06S395.44,233.32,395.44,213.9Z" transform="translate(-186.64 -8.63)"/><path class="cls-1" d="M278.42,192.42V213.9c0,19.43.32,29.06,11.53,29.06s11.37-9.63,11.37-29.06V192.42c0-19.27,0-29.06-11.53-29.06C278.57,163.36,278.42,173.15,278.42,192.42Z" transform="translate(-186.64 -8.63)"/><path class="cls-1" d="M606.07,458.32l-17.75-57.71A397.18,397.18,0,0,1,590.73,443v15.33H571.66v-90.8h22.1l17.63,56c-1.33-18-2.05-31.88-2.05-41.78V367.52h19v89.4L764.66,382.4,560.41,8.63,310.52,145.18A31.56,31.56,0,0,1,323,156.41c6,9.16,6.79,24.48,6.79,46.75S329,240.75,323,249.91c-6.79,10.42-17.69,15.48-33,15.48-15.48,0-26.37-5.05-33.16-15.48-5.84-9-6.63-24.32-6.63-46.75,0-9.82.15-18.27.81-25.43l-64.32,35.15L305.42,430.26V367.52h23.42c14.25,0,23.18,1.45,28.86,9.78,5.19,7.73,5.19,19.2,5.19,35.62s0,27.89-5.19,35.62c-5.67,8.33-14.61,9.78-28.86,9.78h-8.09l70.12,128.33L625.72,458.32Zm29.16-189.25h22.1l17.63,56c-1.33-18-2.05-31.88-2.05-41.78V269.07h19v90.8H669.64l-17.75-57.71a397.18,397.18,0,0,1,2.42,42.38v15.33H635.23Zm-1-39.22H586V206H634.2ZM515.94,143.78h73.44v23.06H566v95.7h-27.8v-95.7H515.94Zm-165,106.13c-5.84-9-6.63-24.32-6.63-46.75s.79-37.74,6.63-46.75c6.79-10.42,17.69-15.48,33.16-15.48s26.22,5.05,33,15.48c6,9.16,6.79,24.48,6.79,46.75s-.79,37.59-6.79,46.75c-6.79,10.42-17.69,15.48-33,15.48C368.59,265.38,357.7,260.33,350.91,249.91ZM425.2,385.15H396.94v16.66H423V420H396.94v19.8H425.2v18.47H375.81v-90.8H425.2Zm-10.12-25.28H390.33L370,269.07H392.5l7.85,47.69c.24,1.57,1.21,8.09,2.54,19.68,1-8.57,1.69-15.09,2.41-19.56l8-47.81h22.46Zm22.06-137.6h25.43v3.47c0,12.32,2.37,17.85,10.11,17.85,5.84,0,9.48-4.26,9.48-11.37,0-9.79-6.47-12.63-15.48-18.64-10.11-6.79-17.85-11.84-22.11-17.85-3.95-5.69-6-13-6-21.48,0-20.85,12.79-33.32,33.8-33.32,23.06,0,35.38,12,35.38,34,0,1.26-.16,2.53-.16,3.79h-25v-1.42c0-10.42-3.32-15.79-9.48-15.79-5.05,0-8.69,3.79-8.69,10.27,0,8.69,7.11,11.84,17.37,18.48,9.32,6,17.06,10.42,21.64,17.53,3.32,5.21,5.21,12.16,5.21,20.53,0,23.85-12.79,37.11-35.69,37.11-24,0-36.17-12.32-36.17-36.64C436.82,226.69,437,224.48,437.14,222.27Zm53.65,119.25v18.35H444.06v-90.8h21.25v72.45Zm-15.72,116.8a45.86,45.86,0,0,1-1.57-12.56c0-4,.24-7,.24-9.3,0-10.5-2.05-14.49-10-14.49h-4.35v36.34h-21v-90.8h23.91c12.07,0,20.16.48,25.6,4.83s7.73,10.5,7.73,19c0,10.38-3.5,17.27-11.23,21.85,9.9,4.35,10,10.38,10.38,21,.36,11.71-.48,19.56,5.19,24.15Zm83.43-73.17H530.24v16.66h26.08V420H530.24v19.8H558.5v18.47H509.11v-90.8H558.5Zm-19.25-25.28-2.66-17.39H519.92l-2.66,17.39H495.89l19.8-90.8h25.24l19.56,90.8Zm42.86-90.8h25.23l19.56,90.8H605.65L603,342.48H586.33l-2.66,17.39H562.3Z" transform="translate(-186.64 -8.63)"/><polygon class="cls-1" points="408.02 277.83 401.87 317.43 414.06 317.43 408.02 277.83"/><path class="cls-1" d="M339.23,437.92c1.93-2.78,2.05-11,2.05-24.87v-4.11c0-11.35-.12-18.23-1.93-20.77-1.81-2.78-5.07-3.86-9.78-3.86a22.25,22.25,0,0,0-2.78.12v57.35a26.18,26.18,0,0,0,3,.12C334.28,441.9,337.3,440.69,339.23,437.92Z" transform="translate(-186.64 -8.63)"/></svg>