<svg id="Laag_1" data-name="Laag 1" xmlns="http://www.w3.org/2000/svg" viewBox="0 0 568.69 568.69"><defs><style>.cls-1{fill:#1e1e1c;}</style></defs><title>vlbra</title><path class="cls-1" d="M474.3,313c0-6.33-4-10-11.44-10a13.28,13.28,0,0,0-2.19.12v20.69H462C470.29,323.88,474.3,320.59,474.3,313Z" transform="translate(-146.57 -13.29)"/><polygon class="cls-1" points="245.58 332.25 257.87 332.25 251.79 292.33 245.58 332.25"/><path class="cls-1" d="M462.13,339.7h-1.46v23.73h1.83c9,0,13.51-4.26,13.51-12.54C476,343.11,471.63,339.7,462.13,339.7Z" transform="translate(-146.57 -13.29)"/><path class="cls-1" d="M324.85,303.8c-.85,0-1.7.12-2.68.12v22.27c1,0,1.83.12,2.68.12,8.76,0,12.17-3.16,12.17-11.68C337,306.72,333.62,303.8,324.85,303.8Z" transform="translate(-146.57 -13.29)"/><polygon class="cls-1" points="262.24 190.59 255.81 231.94 268.54 231.94 262.24 190.59"/><polygon class="cls-1" points="192.91 190.59 186.48 231.94 199.21 231.94 192.91 190.59"/><path class="cls-1" d="M681.44,319.13v60.49H660V305.87H642.86V288.1h21.62L514.31,13.29,197.85,186.22l8.11,49.3c.25,1.64,1.26,8.45,2.65,20.55,1-8.95,1.76-15.76,2.52-20.42l8.32-49.92H242.9l-21.55,94.79H195.5L177,197.63l-30.41,16.61,83.84,153.43V288.1h23c9.61,0,16.92.12,22.88,3.65,6.57,3.89,10,10.47,10,19.35,0,7.91-2.92,13.75-9.86,19.59,8.15,4.14,12.29,11.2,12.29,21.18,0,8.4-3,15.94-7.91,20.93-5.84,6.08-13.63,6.82-24.95,6.82H236.94L347.52,582,715.27,381Zm-132.6-70.75h20.29v2.77c0,9.83,1.89,14.24,8.07,14.24,4.66,0,7.56-3.4,7.56-9.08,0-7.82-5.17-10.08-12.35-14.87-8.07-5.42-14.24-9.45-17.65-14.24-3.15-4.54-4.79-10.34-4.79-17.14,0-16.64,10.21-26.6,27-26.6,18.4,0,28.24,9.58,28.24,27.1,0,1-.13,2-.13,3H585.15v-1.13c0-8.32-2.65-12.61-7.56-12.61-4,0-6.93,3-6.93,8.19,0,6.93,5.67,9.45,13.87,14.75,7.44,4.79,13.61,8.32,17.27,14,2.65,4.16,4.16,9.71,4.16,16.39,0,19-10.21,29.62-28.49,29.62-19.16,0-28.87-9.83-28.87-29.24C548.59,251.91,548.72,250.15,548.84,248.38ZM395.7,185.73H422l20.42,94.79H420.28l-2.77-18.15h-17.4l-2.77,18.15H375Zm-69.32,0h26.34l20.42,94.79H351l-2.77-18.15h-17.4L328,280.53H305.7Zm-26,94.79H251.59V185.73h22.19v75.63h26.6ZM338,379.62A46.23,46.23,0,0,1,336.42,367c0-4,.24-7.06.24-9.37,0-10.59-2.07-14.6-10.1-14.6h-4.38v36.63H301V288.1h24.1c12.17,0,20.32.49,25.8,4.87s7.79,10.59,7.79,19.11c0,10.47-3.53,17.4-11.32,22,10,4.38,10.1,10.47,10.47,21.18.37,11.81-.49,19.72,5.23,24.34Zm71.44,0-2.68-17.53H390l-2.68,17.53H365.75l20-91.52h25.44l19.72,91.52Zm80.2-6.82c-5.84,6.08-13.63,6.82-24.95,6.82H439.25V288.1h23c9.61,0,16.92.12,22.88,3.65,6.57,3.89,10,10.47,10,19.35,0,7.91-2.92,13.75-9.86,19.59,8.15,4.14,12.29,11.2,12.29,21.18C497.55,360.27,494.51,367.81,489.64,372.8Zm-4.45-92.28-15-73.24,1.89,73.24H451.16V185.73h31l8.45,40.34c.25,1.51,1.13,8.95,3,22.19,2-13.36,3-20.92,3.4-22.56l8.32-40h30.76v94.79H515.19l1.89-73.24-15,73.24ZM547,379.62l-2.68-17.53H527.49l-2.68,17.53H503.27l20-91.52h25.44l19.72,91.52Zm86.9,0H611.46l-17.89-58.17A400.57,400.57,0,0,1,596,364.16v15.46H576.78V288.1H599l17.77,56.47c-1.34-18.13-2.07-32.13-2.07-42.11V288.1h19.11Z" transform="translate(-146.57 -13.29)"/><path class="cls-1" d="M251.83,363.43h1.83c9,0,13.51-4.26,13.51-12.54,0-7.79-4.38-11.2-13.87-11.2h-1.46Z" transform="translate(-146.57 -13.29)"/><path class="cls-1" d="M265.46,313c0-6.33-4-10-11.44-10a13.3,13.3,0,0,0-2.19.12v20.69h1.34C261.45,323.88,265.46,320.59,265.46,313Z" transform="translate(-146.57 -13.29)"/><polygon class="cls-1" points="383.1 332.25 395.39 332.25 389.31 292.33 383.1 332.25"/></svg>