<svg id="Laag_1" data-name="Laag 1" xmlns="http://www.w3.org/2000/svg" viewBox="0 0 572.1 572.1"><defs><style>.cls-1{fill:#de5313;}</style></defs><title>wvl</title><path class="cls-1" d="M362.8,370.63c-.84,0-1.67.12-2.63.12v21.87c1,0,1.79.12,2.63.12,8.6,0,12-3.11,12-11.47C374.75,373.5,371.4,370.63,362.8,370.63Z" transform="translate(-90.23)"/><polygon class="cls-1" points="403.85 274.98 397.75 314.18 409.82 314.18 403.85 274.98"/><polygon class="cls-1" points="332.02 314.18 344.1 314.18 338.12 274.98 332.02 314.18"/><path class="cls-1" d="M505.37,445.09,487.8,388a393.5,393.5,0,0,1,2.39,41.95v15.18H471.31V355.22h21.87l17.45,55.45c-1.31-17.81-2-31.55-2-41.35v-14.1h18.76V443.7l135-73.76L460.17,0,215.38,133.76h9l8.44,56.9c.78,5,1.72,14.07,3.28,27.35.94-11.41,1.72-20.32,2.5-26.73l6.25-57.52h27.67L249.22,251.31h-29.7l-6.41-48.61c-.94-7.66-1.88-17-2.66-28.14-.63,9.38-1.41,18.91-2.66,28.29l-6.1,48.46H171.85L155,166.77,90.23,202.15,207.8,417.31V355.22H231c14.1,0,22.95,1.43,28.56,9.68,5.14,7.65,5.14,19,5.14,35.25s0,27.61-5.14,35.25c-5.62,8.25-14.46,9.68-28.56,9.68h-8l69.4,127,232.44-127Zm66.15-173.21v-14.1h18.76v89.87h-22l-17.57-57.12a393.25,393.25,0,0,1,2.39,41.95v15.18H534.23V257.77H556.1l17.45,55.45C572.23,295.42,571.51,281.67,571.51,271.88ZM554.31,219H506.63v-23.6h47.67Zm-117-85.19h72.68v22.82H486.82v94.72H459.3V156.59h-22Zm-78,77.69h25.17v3.44c0,12.19,2.34,17.66,10,17.66,5.78,0,9.38-4.22,9.38-11.25,0-9.69-6.41-12.5-15.32-18.44-10-6.72-17.66-11.72-21.88-17.66-3.91-5.63-5.94-12.82-5.94-21.26,0-20.63,12.66-33,33.45-33,22.82,0,35,11.88,35,33.61,0,1.25-.16,2.5-.16,3.75h-24.7V166.9c0-10.32-3.28-15.63-9.38-15.63-5,0-8.6,3.75-8.6,10.16,0,8.6,7,11.72,17.19,18.29,9.22,5.94,16.88,10.32,21.42,17.35,3.28,5.16,5.16,12,5.16,20.32,0,23.6-12.66,36.73-35.33,36.73-23.76,0-35.8-12.19-35.8-36.26C359,215.83,359.11,213.64,359.27,211.45Zm32,118v18.17H345V257.77h21v71.7ZM281.89,133.76h63.93v22.82H309.25v21.57H343v23.6H309.25V227.4h36.58v23.92H281.89Zm44.46,238.9h-28v16.49H324.2v18H298.38v19.6h28v18.28H277.47V355.22h48.88Zm-10-25h-24.5l-20.08-89.87H294L301.75,305c.24,1.55,1.2,8,2.51,19.48,1-8.48,1.67-14.94,2.39-19.36l7.89-47.32h22.23Zm59.37,97.45a45.39,45.39,0,0,1-1.55-12.43c0-3.94.24-6.93.24-9.2,0-10.4-2-14.34-9.92-14.34h-4.3v36H339.37V355.22H363c12,0,20,.48,25.34,4.78S396,370.4,396,378.76c0,10.28-3.47,17.09-11.11,21.63,9.8,4.3,9.92,10.28,10.28,20.79.36,11.59-.48,19.36,5.14,23.9Zm82.58-72.42h-28v16.49h25.81v18H430.32v19.6h28v18.28H409.4V355.22h48.88Zm-19.06-25-2.63-17.21H420.1l-2.63,17.21H396.32l19.6-89.87h25l19.36,89.87Zm42.42-89.87h25L526,347.64H505l-2.63-17.21H485.83l-2.63,17.21H462Z" transform="translate(-90.23)"/><path class="cls-1" d="M185,218c.63-8.91,1.56-18.13,3-27.2l7-45.91L178.28,154l4,36.94C183.41,201,184.35,210,185,218Z" transform="translate(-90.23)"/><path class="cls-1" d="M241.26,424.89c1.91-2.75,2-10.88,2-24.62v-4.06c0-11.23-.12-18-1.91-20.56-1.79-2.75-5-3.82-9.68-3.82a22.16,22.16,0,0,0-2.75.12v56.77a26.08,26.08,0,0,0,3,.12C236.36,428.83,239.35,427.64,241.26,424.89Z" transform="translate(-90.23)"/></svg>